<mxfile host="app.diagrams.net" modified="2024-07-08T17:44:04.641Z" agent="Mozilla/5.0 (Windows NT 10.0; Win64; x64; rv:126.0) Gecko/20100101 Firefox/126.0" version="24.6.4" etag="wFR9aNJFu5Bb-zj46bsE" type="github">
  <diagram name="Page-1" id="acKOXjTOYbH0A2gXjaoP">
    <mxGraphModel>
      <root>
        <mxCell id="0" />
        <mxCell id="1" parent="0" />
      </root>
    </mxGraphModel>
  </diagram>
</mxfile>
